<?xml version="1.0" encoding="UTF-8" standalone="no"?>
<!DOCTYPE svg PUBLIC "-//W3C//DTD SVG 1.1//EN" "http://www.w3.org/Graphics/SVG/1.1/DTD/svg11.dtd">
<svg width="100%" height="100%" viewBox="0 0 512 512" version="1.1" xmlns="http://www.w3.org/2000/svg" xmlns:xlink="http://www.w3.org/1999/xlink" xml:space="preserve" xmlns:serif="http://www.serif.com/" style="fill-rule:evenodd;clip-rule:evenodd;stroke-miterlimit:10;">
    <rect x="4" y="86" width="82" height="340" style="fill:url(#_Linear1);"/>
    <rect x="426" y="86" width="82" height="340" style="fill:url(#_Linear2);"/>
    <path d="M86,508l0,-82l340,0l0,82l-340,0Z" style="fill:url(#_Linear3);"/>
    <path d="M86,4l0,82l340,0l0,-82l-340,0Z" style="fill:url(#_Linear4);"/>
    <path d="M508,86c0,-45.287 -36.713,-82 -82,-82l0,82l82,0Z" style="fill:url(#_Radial5);"/>
    <path d="M4,86c0,-45.287 36.713,-82 82,-82l0,82l-82,0Z" style="fill:url(#_Radial6);"/>
    <path d="M508,426c0,45.287 -36.713,82 -82,82l0,-82l82,0Z" style="fill:url(#_Radial7);"/>
    <path d="M4,426c0,45.287 36.713,82 82,82l0,-82l-82,0Z" style="fill:url(#_Radial8);"/>
    <path d="M486,426c0,33.137 -26.863,60 -60,60c-88.177,0 -251.823,0 -340,0c-33.137,0 -60,-26.863 -60,-60c0,-88.177 0,-251.823 0,-340c0,-33.137 26.863,-60 60,-60c88.177,0 251.823,0 340,0c33.137,0 60,26.863 60,60c0,88.177 0,251.823 0,340Z" style="fill:#fff;stroke:#ffc400;stroke-width:20px;"/>
    <path d="M410.977,403c-9.931,0 -17.982,-8.051 -17.982,-17.982l0,-99.787c0,-10.886 -9.597,-19.275 -20.385,-17.82l-77.95,10.514c-8.921,1.203 -15.578,8.818 -15.578,17.82l0,89.273c0,9.931 -8.051,17.982 -17.982,17.982c-9.931,0 -17.982,-8.051 -17.982,-17.982l0,-259.036c0,-9.931 8.051,-17.982 17.982,-17.982c9.931,0 17.982,8.051 17.982,17.982l0,97.841c0,10.887 9.597,19.276 20.385,17.821l77.95,-10.514c8.921,-1.203 15.578,-8.818 15.578,-17.82l0,-87.328c0,-9.931 8.051,-17.982 17.982,-17.982c9.931,0 17.982,8.051 17.982,17.982l0,259.036c0,9.931 -8.051,17.982 -17.982,17.982" style="fill:#ffc400;fill-rule:nonzero;"/>
    <path d="M145.058,300.365c-0.588,0 -1.162,0.014 -1.72,0.041c-25.529,1.248 -26.266,31.132 -26.266,34.536c0,18.032 13.449,29.684 34.264,29.684c8.601,0 14.768,-4.089 20.037,-11.615c0.139,-0.897 0.354,-1.794 0.648,-2.685c3.922,-11.854 6.893,-28.224 -1.222,-38.896c-6.252,-8.221 -17.385,-11.065 -25.741,-11.065m6.278,97.419c-39.067,0 -67.423,-26.428 -67.423,-62.841c0,-31.224 18.09,-65.714 57.806,-67.656c14.077,-0.69 32.331,3.062 46.451,14.699c-0.119,-4.812 -0.432,-9.786 -0.986,-14.853c-2.523,-23.077 -10.92,-54.621 -36.593,-73.838c-7.33,-5.487 -8.825,-15.878 -3.338,-23.208c5.487,-7.33 15.877,-8.825 23.209,-3.338c27.861,20.856 45.042,54.322 49.684,96.78c3.627,33.176 -1.371,65.115 -7.551,80.753c-6.327,16.01 -21.144,53.503 -61.259,53.503" style="fill:#ffc400;fill-rule:nonzero;"/>
    <defs>
        <linearGradient id="_Linear1" x1="0" y1="0" x2="1" y2="0" gradientUnits="userSpaceOnUse" gradientTransform="matrix(-82,9.55225e-15,-1.00421e-14,-78,86,256)"><stop offset="0" style="stop-color:#000;stop-opacity:1"/><stop offset="0.66" style="stop-color:#242424;stop-opacity:0.858824"/><stop offset="0.84" style="stop-color:#878787;stop-opacity:0.470588"/><stop offset="1" style="stop-color:#fff;stop-opacity:0"/></linearGradient>
        <linearGradient id="_Linear2" x1="0" y1="0" x2="1" y2="0" gradientUnits="userSpaceOnUse" gradientTransform="matrix(82,9.55225e-15,1.00421e-14,-78,426,256)"><stop offset="0" style="stop-color:#000;stop-opacity:1"/><stop offset="0.66" style="stop-color:#242424;stop-opacity:0.858824"/><stop offset="0.84" style="stop-color:#878787;stop-opacity:0.470588"/><stop offset="1" style="stop-color:#fff;stop-opacity:0"/></linearGradient>
        <linearGradient id="_Linear3" x1="0" y1="0" x2="1" y2="0" gradientUnits="userSpaceOnUse" gradientTransform="matrix(4.53119e-15,82,-78,5.26598e-15,256,426)"><stop offset="0" style="stop-color:#000;stop-opacity:1"/><stop offset="0.66" style="stop-color:#242424;stop-opacity:0.858824"/><stop offset="0.84" style="stop-color:#878787;stop-opacity:0.470588"/><stop offset="1" style="stop-color:#fff;stop-opacity:0"/></linearGradient>
        <linearGradient id="_Linear4" x1="0" y1="0" x2="1" y2="0" gradientUnits="userSpaceOnUse" gradientTransform="matrix(1.45733e-14,-82,-78,-1.48182e-14,256,86)"><stop offset="0" style="stop-color:#000;stop-opacity:1"/><stop offset="0.66" style="stop-color:#242424;stop-opacity:0.858824"/><stop offset="0.84" style="stop-color:#878787;stop-opacity:0.470588"/><stop offset="1" style="stop-color:#fff;stop-opacity:0"/></linearGradient>
        <radialGradient id="_Radial5" cx="0" cy="0" r="1" gradientUnits="userSpaceOnUse" gradientTransform="matrix(82,0,0,82,426,86)"><stop offset="0" style="stop-color:#000;stop-opacity:1"/><stop offset="0.66" style="stop-color:#242424;stop-opacity:0.858824"/><stop offset="0.84" style="stop-color:#878787;stop-opacity:0.470588"/><stop offset="1" style="stop-color:#fff;stop-opacity:0"/></radialGradient>
        <radialGradient id="_Radial6" cx="0" cy="0" r="1" gradientUnits="userSpaceOnUse" gradientTransform="matrix(82,0,0,82,86,86)"><stop offset="0" style="stop-color:#000;stop-opacity:1"/><stop offset="0.66" style="stop-color:#242424;stop-opacity:0.858824"/><stop offset="0.84" style="stop-color:#878787;stop-opacity:0.470588"/><stop offset="1" style="stop-color:#fff;stop-opacity:0"/></radialGradient>
        <radialGradient id="_Radial7" cx="0" cy="0" r="1" gradientUnits="userSpaceOnUse" gradientTransform="matrix(82,0,0,82,426,426)"><stop offset="0" style="stop-color:#000;stop-opacity:1"/><stop offset="0.66" style="stop-color:#242424;stop-opacity:0.858824"/><stop offset="0.84" style="stop-color:#878787;stop-opacity:0.470588"/><stop offset="1" style="stop-color:#fff;stop-opacity:0"/></radialGradient>
        <radialGradient id="_Radial8" cx="0" cy="0" r="1" gradientUnits="userSpaceOnUse" gradientTransform="matrix(82,0,0,82,86,426)"><stop offset="0" style="stop-color:#000;stop-opacity:1"/><stop offset="0.66" style="stop-color:#242424;stop-opacity:0.858824"/><stop offset="0.84" style="stop-color:#878787;stop-opacity:0.470588"/><stop offset="1" style="stop-color:#fff;stop-opacity:0"/></radialGradient>
    </defs>
</svg>
